<svg xmlns="http://www.w3.org/2000/svg" xmlns:xlink="http://www.w3.org/1999/xlink" data-name="Layer 1" width="1188.53175" height="718" style=""><rect id="backgroundrect" width="100%" height="100%" x="0" y="0" fill="none" stroke="none"/><defs><linearGradient id="adf7ac93-4989-4cdd-bde6-06fdb252ba8f" x1="0.5" y1="1" x2="0.5" y2="0"><stop offset="0" stop-color="gray" stop-opacity="0.25"/><stop offset="0.53514" stop-color="gray" stop-opacity="0.12"/><stop offset="1" stop-color="gray" stop-opacity="0.1"/></linearGradient></defs><title>mobile user</title><g class="currentLayer" style=""><title>Layer 1</title><path d="M184.00000010787963,225 v36 a57,57 0 0 1 0,114 v36 h186 V225 z" fill="#f2f2f2" id="svg_1"/><circle cx="184" cy="318" r="45" fill="#f2f2f2" id="svg_2"/><polygon points="866 363.051 793 318.055 793 666 866 666 866 363.051" fill="#f2f2f2" id="svg_3"/><polygon points="681 666 754 666 754 294.016 681 249.02 681 666" fill="#f2f2f2" id="svg_4"/><polygon points="642 224.98 277 0 277 203 394 203 394 437 277 437 277 666 642 666 642 224.98" fill="#f2f2f2" id="svg_5"/><polygon points="905 387.09 905 666 943 666 1046 474 905 387.09" fill="#f2f2f2" id="svg_6"/><path d="M1046.8139301078797,532.89148 C986.2341301078797,578.17479 969.1528801078796,657.73159 969.1528801078796,657.73159 s81.138,6.13807 141.71783,-39.14524 s77.661,-124.84011 77.661,-124.84011 S1107.3937301078797,487.60817 1046.8139301078797,532.89148 z" fill="#072779" id="svg_7" class="" fill-opacity="1"/><path d="M969.1998801078796,656.96417 s-0.8891900000000001,-0.4965200000000001 -2.49849,-1.48472 c-1.2834,-0.789 -3.045,-1.8899500000000002 -5.17344,-3.2961 c-19.03717,-12.54364 -68.35148,-49.43818 -88.57865,-106.36407 c-25.3068,-71.27392 4.57585,-146.95816 4.57585,-146.95816 s65.18609,36.64574 92.87645,102.469 c1.20654,2.8345700000000003 2.3233,5.72744 3.37413,8.67592 c22.02085,62.01505 2.25689,127.36771 -3.24665,143.29761 C969.7009301078797,655.68928 969.1998801078796,656.96417 969.1998801078796,656.96417 z" fill="#028afd" id="svg_8" class="" fill-opacity="1"/><path d="M969.4944001078796,659.21387 l-0.9277400000000001,-0.6728500000000002 c-0.6630800000000001,-0.47852000000000006 -66.41113,-48.78223 -83.30469,-121.99805 c-16.89453,-73.21582 21.041,-145.44336 21.42676,-146.16406 l0.54,-1.01172 l0.9277400000000001,0.6728500000000002 c0.6630800000000001,0.47851000000000005 66.41113,48.78223 83.30468,121.99805 h0 c16.89453,73.21582 -21.041,145.44336 -21.42676,146.16406 zM907.9201801078797,392.36328 c-4.55957,9.09668 -36.332,76.02832 -20.709,143.73047 c15.6211,67.70215 73.50782,113.94434 81.5918,120.124 c4.55957,-9.09668 36.332,-76.02832 20.709,-143.73047 h0 C973.8908801078796,444.78516 916.0041601078797,398.543 907.9201801078797,392.36328 z" fill="#3f3d56" id="svg_9"/><path d="M970.5290801078796,653.30362 c-1.4773100000000001,0.8604 -2.76778,1.58414 -3.82769,2.17583 c-2.3356,1.2753 -3.63056,1.9176900000000001 -3.63056,1.9176900000000001 s-0.6127200000000002,-1.84238 -1.54288,-5.21379 c-5.12874,-18.44506 -19.81253,-82.7294 4.76236,-141.774 q1.93845,-4.63954 4.11129,-9.07927 c1.20654,2.8345700000000003 2.3233,5.72744 3.37413,8.67592 C995.7965801078797,572.02106 976.0326201078797,637.37372 970.5290801078796,653.30362 z" opacity="0.1" id="svg_10"/><path d="M1072.1014201078797,554.08132 C1043.0494101078796,623.91306 970.1068801078796,659.97469 970.1068801078796,659.97469 s-25.83991,-77.158 3.2121,-146.98971 s101.99454,-105.89336 101.99454,-105.89336 S1101.1534301078796,484.24959 1072.1014201078797,554.08132 z" fill="#028afd" id="svg_11" class="" fill-opacity="1"/><rect x="942.6884460449219" y="1864.7803344726562" width="268.7007751464844" height="1.999400019645691" transform="rotate(-67.24236297607422 48.51834106445296,1240.717041015625) " fill="#3f3d56" id="svg_12"/><path d="M1177.5000001078797,680.49145 c0,9.36489 -53.869,17.93035 -142.93152,24.50541 c-16.19314,1.191 -33.55158,2.31673 -51.95385,3.37725 q-23.86416,1.3704800000000001 -50.00826,2.57773 q-25.33862,1.15029 -52.612610000000004,2.13738 c-57.43605,2.08829 -120.92171,3.58926 -188.36955,4.33979 q-24.54818,0.26916 -49.76513,0.42421000000000003 q-26.2505,0.14684000000000003 -53.10908,0.14678000000000002 c-325.16024,0 -588.75,-16.78827 -588.75,-37.50855 s263.58976,-37.50855 588.75,-37.50855 c139.98268,0 268.545,3.11615 369.585,8.30446 q5.5785,0.29367000000000004 11.04542,0.5710000000000001 a0.11385,0.11385 0 0 0 0.07094,0.016330000000000004 C1096.7267901078797,658.75964 1177.5000001078797,669.02194 1177.5000001078797,680.49145 z" fill="#062060" id="svg_13" class="" fill-opacity="1"/><path d="M1160.2272692805482,688.6732689620972 c0,9.36489 -53.869,17.93035 -142.93152,24.50541 c-16.19314,1.191 -33.55158,2.31673 -51.95385,3.37725 q-23.86416,1.3704800000000001 -50.00826,2.57773 q-25.33862,1.15029 -52.612610000000004,2.13738 c-57.43605,2.08829 -120.92171,3.58926 -188.36955,4.33979 q-24.54818,0.26916 -49.76513,0.4242100000000002 q-26.2505,0.1468400000000001 -53.10908,0.1467800000000001 c-325.16024,0 -588.75,-16.78827 -588.75,-37.50855 s263.58976,-37.50855 588.75,-37.50855 c139.98268,0 268.545,3.11615 369.585,8.30446 q5.5785,0.2936700000000002 11.04542,0.5710000000000004 a0.11385,0.11385 0 0 0 0.07094,0.016330000000000015 C1079.454059280548,666.9414589620972 1160.2272692805482,677.2037589620971 1160.2272692805482,688.6732689620972 z" opacity="0.15" id="svg_14" class="" fill-opacity="1" fill="#072779"/><path d="M1135.8863636141969,674.7990908765793 c0,7.83 -50.22,14.99 -133.25,20.49 c-15.09,0.99 -31.28,1.9300000000000002 -48.43,2.8200000000000003 q-22.245,1.13992 -46.62,2.15 q-23.625,0.975 -49.05,1.79 c-53.55,1.75 -112.74,3 -175.62,3.63 q-22.875,0.22500000000000006 -46.39,0.3500000000000001 q-24.48,0.13494000000000006 -49.51,0.13 c-303.14,0 -548.88,-14.04 -548.88,-31.36 s245.74,-31.36 548.88,-31.36 c67.03,0 131.25,0.6900000000000004 190.63,1.9500000000000002 h0.15000000000000005 c56.16,1.19 107.99005,2.89 153.77,5 q5.205,0.24000000000000005 10.3,0.4700000000000001 a0.09540000000000005,0.09540000000000005 0 0 0 0.07,0.020000000000000007 c20.97,1.02 40.59,2.12 58.67,3.3 c0.2,0.010000000000000004 0.4,0.030000000000000013 0.6000000000000002,0.040000000000000015 C1085.0963336141967,659.7290908765793 1135.8863636141969,666.9190908765793 1135.8863636141969,674.7990908765793 z" fill="#072779" id="svg_15" class="" fill-opacity="1"/><path d="M996.9699801078797,653.27 c-7.43,48.31 -54.28,32.12 -110.97,32.12 c-59.89,0 -108.79,18.07 -111.84,-40.91 c56.16,1.19 107.99005,2.89 153.77,5 q5.205,0.24000000000000002 10.3,0.47000000000000003 a0.09540000000000003,0.09540000000000003 0 0 0 0.07,0.020000000000000004 C959.2700201078796,650.99 978.8900201078796,652.09 996.9699801078797,653.27 z" opacity="0.1" id="svg_16"/><path d="M317.27675010787965,638.57325 c0,17.41683 -10.35262,23.49772 -23.12525,23.49772 c-0.29585000000000006,0 -0.5916900000000002,-0.00427 -0.88541,-0.010660000000000001 c-0.5917100000000001,-0.012770000000000004 -1.17915,-0.040420000000000005 -1.75808,-0.08086000000000002 c-11.52749,-0.8151900000000001 -20.48174,-7.209 -20.48174,-23.4062 c0,-16.75915 21.41612,-37.90922 23.02945,-39.47786 l0.0021300000000000004,-0.0021300000000000004 c0.061730000000000014,-0.06172000000000001 0.09365000000000002,-0.09152000000000003 0.09365000000000002,-0.09152000000000003 S317.27675010787965,621.15855 317.27675010787965,638.57325 z" fill="#028afd" id="svg_17" class="" fill-opacity="1"/><path d="M293.30866010787963,659.40618 l8.45832,-11.817 l-8.47961,13.1153 l-0.021280000000000004,1.3558000000000001 c-0.5917100000000001,-0.012770000000000004 -1.17915,-0.040420000000000005 -1.75808,-0.08086000000000002 l0.911,-17.42323 l-0.006380000000000002,-0.13621000000000003 l0.014900000000000002,-0.023420000000000007 l0.08726000000000003,-1.6473900000000001 L284.01388010787963,629.602 l8.52642,11.91275 l0.021290000000000003,0.3490600000000001 l0.6874800000000001,-13.16426 l-7.27706,-13.58567 l7.36645,11.27635 l0.7172700000000001,-27.294810000000002 l0.0021300000000000004,-0.09365000000000002 v0.09152000000000003 l-0.11919000000000003,21.52254 l7.24514,-8.532820000000001 L293.9088801078796,622.46966 l-0.19155000000000003,11.78717 l6.76623,-11.31254 l-6.7939,13.04719 l-0.10642000000000001,6.5534 l9.81838,-15.746 L293.54488010787964,644.8308 z" fill="#3f3d56" id="svg_18"/><path d="M774.0000001078796,626.39338 c0,-66.27417 50.14411,-120 112,-120 s112,53.72583 112,120 s-50.1441,47 -112,47 S774.0000001078796,692.66755 774.0000001078796,626.39338 z" fill="#072779" id="svg_19" class="" fill-opacity="1"/><rect x="151.383544921875" y="547.3310546875" width="2" height="135.1806640625" fill="#072779" id="svg_20" class="" fill-opacity="1"/><circle cx="152.38363647460938" cy="547.3314208984375" r="19.116390228271484" fill="#072779" id="svg_21" class="" fill-opacity="1"/><path d="M152.38364010787964,630.64576 s-2.7309200000000002,-58.73613 -58.71464,-51.90885 " fill="#072779" id="svg_22" class="" fill-opacity="1"/><path d="M709.0137801078796,569.57405 c0.49900000000000005,1.7644700000000002 1.05571,3.51728 1.6510000000000002,5.25767 c-2.67,-2.6244 -5.28956,-5.32006 -7.95953,-7.92844 c1.071,0.3337800000000001 2.13887,0.6670600000000001 3.1484900000000002,1.06266 A19.10142,19.10142 0 0 1 709.0137801078796,569.57405 zm-12.93212,-8.76483 c-15.7352,-13.68178 -33.96742,-24.27416 -50.09265,-37.5386 c8.80552,4.33207 17.37067,9.37993 25.86743,14.22052 q15.11745,8.612400000000001 30.59415,16.55509 A24.94985,24.94985 0 0 1 696.0816601078797,560.80922 zm6.73063,-34.4515 q0.37600000000000006,-0.38400000000000006 0.75333,-0.7725799999999999 c0.007230000000000001,1.94381 0.021940000000000005,3.7612300000000003 0.04523000000000001,5.4113 q-2.11473,-0.70159 -4.21768,-1.4389500000000002 A37.23886,37.23886 0 0 0 702.8122901078797,526.35772 zM564.2065601078797,563.398 a129.41265,129.41265 0 0 0 16.79078,-23.95217 c6.24672,10.91349 16.39758,18.78283 25.03211,27.923000000000002 C592.1177401078796,565.53279 578.1844601078797,564.0173 564.2065601078797,563.398 z" fill="url(#adf7ac93-4989-4cdd-bde6-06fdb252ba8f)" id="svg_23"/><path d="M117.27675010787964,664.57325 c0,17.41683 -10.35262,23.49772 -23.12525,23.49772 c-0.29585000000000006,0 -0.5916900000000002,-0.00427 -0.88541,-0.010660000000000001 c-0.5917100000000001,-0.012770000000000004 -1.17915,-0.040420000000000005 -1.75808,-0.08086000000000002 c-11.52749,-0.8151900000000001 -20.48174,-7.209 -20.48174,-23.4062 c0,-16.75915 21.41612,-37.90922 23.02945,-39.47786 l0.0021300000000000004,-0.0021300000000000004 c0.061730000000000014,-0.06172000000000001 0.09365000000000002,-0.09152000000000003 0.09365000000000002,-0.09152000000000003 S117.27675010787964,647.15855 117.27675010787964,664.57325 z" fill="#028afd" id="svg_24" class="" fill-opacity="1"/><path d="M93.30866010787963,685.40618 l8.45832,-11.817 l-8.47961,13.1153 l-0.021280000000000004,1.3558000000000001 c-0.5917100000000001,-0.012770000000000004 -1.17915,-0.040420000000000005 -1.75808,-0.08086000000000002 l0.911,-17.42323 l-0.006380000000000002,-0.13621000000000003 l0.014900000000000002,-0.023420000000000007 l0.08726000000000003,-1.6473900000000001 L84.01388010787964,655.602 l8.52642,11.91275 l0.021290000000000003,0.3490600000000001 l0.6874800000000001,-13.16426 l-7.27706,-13.58567 l7.36645,11.27635 l0.7172700000000001,-27.294810000000002 l0.0021300000000000004,-0.09365000000000002 v0.09152000000000003 l-0.11919000000000003,21.52254 l7.24514,-8.532820000000001 L93.90888010787964,648.46966 l-0.19155000000000003,11.78717 l6.76623,-11.31254 l-6.7939,13.04719 l-0.10642000000000001,6.5534 l9.81838,-15.746 L93.54488010787964,670.8308 z" fill="#3f3d56" id="svg_25"/><circle cx="129" cy="516" r="10" fill="#028afd" id="svg_26" class="" fill-opacity="1"/><path d="M771.9882201078797,376.03148 S808.2658801078796,368 812.2658801078796,400 s-19.26588,38.04025 -19.26588,38.04025 L778.2658801078796,442 l-57,-15 l8,-23 z" fill="#2f2e41" id="svg_27"/><circle cx="758.9153442382812" cy="328.77374267578125" r="49.02334976196289" fill="#2f2e41" id="svg_28"/><polygon points="586.65 430.572 596.611 432.575 630.477 482.652 615.536 484.655 586.65 430.572" fill="#2f2e41" id="svg_29"/><path d="M345.72197010787966,633.74808 a195.67048,195.67048 0 0 0 9.89887,25.84773 a241.23674,241.23674 0 0 0 33.047,-9.41617 c0.33227000000000007,-0.12086000000000001 -6.1811,-8.63987 -6.865,-9.33582 c-2.58049,-2.6257900000000003 -5.92091,-5.69387 -9.33249,-7.17825 c-3.43989,-1.49669 -7.67708,-0.35439000000000004 -11.3594,-0.16634000000000004 Q353.42388010787965,633.89181 345.72197010787966,633.74808 z" fill="#fbbebe" id="svg_30"/><path d="M372.5288801078796,647.12555 c-5.6143,-1.7567300000000001 -9.02614,-7.40609 -11.30973,-12.85425 s-4.12519,-11.3889 -8.45657,-15.38723 c-1.6595300000000002,0.07936000000000001 -2.9963699999999998,1.428 -3.81745,2.8802700000000003 s-1.31,3.08955 -2.25892,4.46079 c-1.8064900000000002,2.6103300000000003 -4.98161,3.8717300000000003 -7.25267,6.085 c-2.38093,2.32034 -3.6824500000000002,5.60336 -6.147,7.8336500000000004 c-3.09567,2.8014 -7.47168,3.497 -11.5332,4.4236 a73.96442,73.96442 0 0 0 -18.04841,6.69149 a30.3092,30.3092 0 0 1 -6.68586,2.99631 a25.11054,25.11054 0 0 1 -7.81924,0.2611 l-17.95728,-1.27966 a14.0313,14.0313 0 0 0 -4.79343,0.20972000000000002 c-3.6914800000000003,1.03646 -5.98349,5.15642 -5.71229,9.00058 s2.66268,7.289 5.68278,9.66174 a37.82411,37.82411 0 0 0 10.22659,5.1816 a303.054,303.054 0 0 0 48.14813,13.75357 l0.008830000000000003,3.55417 a83.15631,83.15631 0 0 0 36.652,8.534 a5.70157,5.70157 0 0 0 2.74337,-0.47547000000000006 c1.26034,-0.6840800000000001 1.84383,-2.15613 2.30994,-3.5178700000000003 a142.47714,142.47714 0 0 0 7.48986,-39.03785 a29.63421,29.63421 0 0 0 -0.77313,-10.05554 c-0.978,-3.233 2.3896100000000002,-1.8744 -0.7266100000000001,-3.13982 " fill="#2f2e41" id="svg_31"/><path d="M716.9336301078796,579.43048 c-53.23985,3.18768 -105.86052,-12.39593 -159.16893,-14.06163 c-6.62747,-0.20709000000000002 -13.32708,-0.19175000000000003 -19.79828,1.26167 c-6.84556,1.53751 -13.22717,4.63506 -19.593,7.59683 c-28.591,13.302340000000001 -58.16882,24.32061 -87.7106,35.32391 L396.7274301078796,622.191 c-6.78149,2.5258700000000003 -13.80847,5.0908 -21.02694,4.64965 c-3.23568,-0.19775000000000004 -7.20781,-0.6873800000000001 -9.02826,2.00962 c-5.52072,8.179 -2.9119099999999998,20.19547 0.7357500000000001,29.37472 c1.184,2.97949 3.18662,6.19409 6.3597,6.53305 c2.23384,0.23863 4.311,-1.05448 6.48169,-1.6358300000000001 c6.17712,-1.6543100000000002 12.33544,2.50067 18.69241,3.17706 c7.85383,0.8356700000000001 15.14667,-3.63809 22.55944,-6.3778500000000005 c12.29437,-4.5440000000000005 25.73732,-4.40123 38.65989,-6.55333 c21.668590000000002,-3.6086400000000003 41.752,-13.67 60.52541,-25.13316 c7.14893,-4.36519 14.38221,-9.04122 22.594,-10.6377 c9.442450000000001,-1.83575 19.14105,0.5966200000000002 28.39884,3.216 a655.88535,655.88535 0 0 1 65.107,22.17033 c11.21473,4.48793 22.34923,9.30061 34.018,12.405 a122.99664,122.99664 0 0 0 76.23917,-4.44513 c8.52171,-3.36793 17.78127,-9.32164 18.26945,-18.51535 c0.27834000000000003,-5.242 -3.78673,-9.86049 -6.50355,-14.34319 c-1.7422400000000002,-2.87466 -3.48559,-5.751 -5.38281,-8.524750000000001 C744.2461401078797,596.13858 733.1052801078796,578.46222 716.9336301078796,579.43048 z" fill="#2f2e41" id="svg_32"/><path d="M716.9336301078796,579.43048 c-53.23985,3.18768 -105.86052,-12.39593 -159.16893,-14.06163 c-6.62747,-0.20709000000000002 -13.32708,-0.19175000000000003 -19.79828,1.26167 c-6.84556,1.53751 -13.22717,4.63506 -19.593,7.59683 c-28.591,13.302340000000001 -58.16882,24.32061 -87.7106,35.32391 L396.7274301078796,622.191 c-6.78149,2.5258700000000003 -13.80847,5.0908 -21.02694,4.64965 c-3.23568,-0.19775000000000004 -7.20781,-0.6873800000000001 -9.02826,2.00962 c-5.52072,8.179 -2.9119099999999998,20.19547 0.7357500000000001,29.37472 c1.184,2.97949 3.18662,6.19409 6.3597,6.53305 c2.23384,0.23863 4.311,-1.05448 6.48169,-1.6358300000000001 c6.17712,-1.6543100000000002 12.33544,2.50067 18.69241,3.17706 c7.85383,0.8356700000000001 15.14667,-3.63809 22.55944,-6.3778500000000005 c12.29437,-4.5440000000000005 25.73732,-4.40123 38.65989,-6.55333 c21.668590000000002,-3.6086400000000003 41.752,-13.67 60.52541,-25.13316 c7.14893,-4.36519 14.38221,-9.04122 22.594,-10.6377 c9.442450000000001,-1.83575 19.14105,0.5966200000000002 28.39884,3.216 a655.88535,655.88535 0 0 1 65.107,22.17033 c11.21473,4.48793 22.34923,9.30061 34.018,12.405 a122.99664,122.99664 0 0 0 76.23917,-4.44513 c8.52171,-3.36793 17.78127,-9.32164 18.26945,-18.51535 c0.27834000000000003,-5.242 -3.78673,-9.86049 -6.50355,-14.34319 c-1.7422400000000002,-2.87466 -3.48559,-5.751 -5.38281,-8.524750000000001 C744.2461401078797,596.13858 733.1052801078796,578.46222 716.9336301078796,579.43048 z" opacity="0.1" id="svg_33"/><path d="M447.9391101078796,636.3401 q12.50091,4.26635 25.22031,7.84468 c4.74685,-7.7935 13.62672,-13.21674 15.65061,-22.12622 a1.9451100000000001,1.9451100000000001 0 0 0 0.0014300000000000005,-1.19312 a2.00931,2.00931 0 0 0 -0.95454,-0.85406 a46.95963,46.95963 0 0 0 -19.74829,-5.78686 c-5.47236,-0.34588000000000013 -7.96968,5.36788 -10.45072,9.38371 C456.6535201078796,625.23394 450.16900010787964,637.10113 447.9391101078796,636.3401 z" fill="#fbbebe" id="svg_34"/><path d="M459.62039010787964,630.65112 c-4.92166,-1.0316 -9.73811,-3.6769000000000003 -12.25079,-8.0554 c-1.1772,-2.05136 -2.42941,-4.8166 -4.77976,-4.66174 c-2.1817,0.14375000000000002 -3.18411,2.74664 -3.6752900000000004,4.88888 c-1.83939,8.02225 -3.646,16.10845 -6.87319,23.67466 s-8.00155,14.6697 -14.735,19.3534 c-3.088,2.148 -6.53123,3.75252 -9.54979,5.9981 c-2.71235,2.01778 -5.077,4.54833 -8.07277,6.109 a45.53523,45.53523 0 0 1 -6.191,2.30912 a41.93448,41.93448 0 0 0 -8.86639,4.315 a17.83735,17.83735 0 0 0 -6.03736,5.76848 a8.45983,8.45983 0 0 0 -0.49746000000000007,8.07324 a8.73738,8.73738 0 0 0 5.90951,4.04714 a25.30029,25.30029 0 0 0 7.34506,0.18411000000000002 c9.70713,-0.7154 19.40273,-1.5796700000000001 29.09788,-2.4439 a83.43759,83.43759 0 0 0 12.196110000000001,-1.6960000000000002 c2.12391,-0.51235 4.20473,-1.19081 6.32044,-1.73638 a52.12627,52.12627 0 0 1 11.08575,-1.61447 a9.28882,9.28882 0 0 1 3.23418,0.29540000000000005 c2.24608,0.7337800000000001 3.83995,2.96842 6.15814,3.4219 a9.77613,9.77613 0 0 0 4.38525,-0.5860500000000001 c6.98526,-1.91021 14.32521,-1.85866 21.55378,-2.24884 c3.185,-0.17193000000000003 6.913,-0.777 8.37423,-3.6279000000000003 c1.82221,-3.55518 -1.1994,-7.53058 -2.40342,-11.34251 a34.72289,34.72289 0 0 1 -0.9988,-7.43817 a45.54779,45.54779 0 0 0 -5.3465,-17.68453 c-2.471,-4.53743 -5.84471,-9.55418 -4.10828,-14.42381 c0.5892000000000001,-1.65236 1.76091,-3.19084 1.64446,-4.94248 C482.02756010787965,628.895 464.08315010787965,631.58653 459.62039010787964,630.65112 z" fill="#2f2e41" id="svg_35"/><path d="M637.0943301078796,494.01706 a41.66573,41.66573 0 0 1 -21.21356,-21.07084 c-0.8891200000000001,-2.02146 -1.6197300000000001,-4.1323 -2.47591,-6.173 a46.89839,46.89839 0 0 0 -12.6782,-17.60634 c-1.38625,-1.17588 -3.01261,-2.29824 -4.70628,-1.9905599999999999 c-1.62518,0.29524 -2.904,1.90321 -3.4616,3.70682 a15.12244,15.12244 0 0 0 -0.35130000000000006,5.68868 a101.86261,101.86261 0 0 0 2.307,13.30683 l2.58,11.75624 a22.52364,22.52364 0 0 0 1.606,5.2478 a18.47989,18.47989 0 0 0 4.331,5.18134 q3.53526,3.25644 7.18533,6.33855 a20.078,20.078 0 0 0 12.45951,5.54006 c10.57269,1.96068 21.32586,4.78483 30.24752,11.68451 c-0.09900000000000003,-0.07654000000000001 -0.03787000000000001,-7.8853100000000005 -0.19229000000000004,-8.7804 c-0.40814,-2.36576 -0.7261900000000001,-4.7087200000000005 -2.26594,-6.30823 C647.0066901078796,496.94537 641.3074101078796,495.88969999999995 637.0943301078796,494.01706 z" fill="#fbbebe" id="svg_36"/><path d="M637.0943301078796,494.01706 a41.66573,41.66573 0 0 1 -21.21356,-21.07084 c-0.8891200000000001,-2.02146 -1.6197300000000001,-4.1323 -2.47591,-6.173 a46.89839,46.89839 0 0 0 -12.6782,-17.60634 c-1.38625,-1.17588 -3.01261,-2.29824 -4.70628,-1.9905599999999999 c-1.62518,0.29524 -2.904,1.90321 -3.4616,3.70682 a15.12244,15.12244 0 0 0 -0.35130000000000006,5.68868 a101.86261,101.86261 0 0 0 2.307,13.30683 l2.58,11.75624 a22.52364,22.52364 0 0 0 1.606,5.2478 a18.47989,18.47989 0 0 0 4.331,5.18134 q3.53526,3.25644 7.18533,6.33855 a20.078,20.078 0 0 0 12.45951,5.54006 c10.57269,1.96068 21.32586,4.78483 30.24752,11.68451 c-0.09900000000000003,-0.07654000000000001 -0.03787000000000001,-7.8853100000000005 -0.19229000000000004,-8.7804 c-0.40814,-2.36576 -0.7261900000000001,-4.7087200000000005 -2.26594,-6.30823 C647.0066901078796,496.94537 641.3074101078796,495.88969999999995 637.0943301078796,494.01706 z" opacity="0.1" id="svg_37"/><ellipse cx="745.5208740234375" cy="391.0108642578125" rx="12.948699951171875" ry="13.020079612731934" fill="#2f2e41" id="svg_38"/><path d="M737.5054701078797,383.14469 c-3.515,-0.38983000000000007 -7.41916,-0.6790500000000002 -10.23554,1.47134 a13.97808,13.97808 0 0 0 -3.5023400000000002,4.76882 c-2.70725,5.08309 -5.37676,10.26247 -6.73934,15.86345 c-1.15606,4.75207 -1.3478400000000001,9.72124 -2.77927,14.3969 c-2.6553500000000003,8.67346 -9.45814,15.99427 -10.23562,25.03565 c-0.3479200000000001,4.0459 0.3293800000000001,8.78288 -2.62228,11.55472 a17.34929,17.34929 0 0 1 -2.32675,1.65026 a17.60478,17.60478 0 0 0 -5.09674,5.24089 c-1.10508,1.7556800000000001 -1.956,3.7725299999999997 -3.61936,5.00532 c-2.63322,1.9516 -7.00494,1.7530000000000001 -8.30307,4.77212 c-1.3339,3.10237 2.05109,6.55546 1.26693,9.84209 c-0.6387100000000001,2.677 -3.6228100000000003,3.90368 -5.678,5.72264 c-2.6329200000000004,2.33036 -3.83672,5.84608 -4.9345099999999995,9.19586 a30.534,30.534 0 0 1 -24.77846,-6.17913 c3.615,8.90286 3.69271,18.72812 3.84979,28.34315 c0.05100000000000001,3.11919 -0.04628000000000001,6.6197 -2.2731,8.7919 c10.30881,0.22075000000000003 20.3631,3.01355 30.42326,5.28716 c4.39679,0.99368 9.17,1.85656 13.26994,-0.024210000000000002 a21.651,21.651 0 0 0 6.07728,-4.83373 c5.47262,-5.54981 11.214,-11.60423 12.55294,-19.30282 c0.7502300000000001,-4.31354 0.023650000000000008,-8.740590000000001 0.22223000000000004,-13.115 c0.24600000000000002,-5.42009 1.90337,-10.6579 3.32221,-15.892710000000001 a187.52863,187.52863 0 0 0 5.81538,-32.72556 c0.5957800000000001,-6.82446 6.49023,-12.31707 9.59314,-18.41606 c5.8578,-11.51392 11.84409,-23.50568 12.28545,-36.4311 C743.2072901078797,388.8442 741.7807801078797,383.61884 737.5054701078797,383.14469 z" fill="#2f2e41" id="svg_39"/><path d="M737.5054701078797,383.14469 c-3.515,-0.38983000000000007 -7.41916,-0.6790500000000002 -10.23554,1.47134 a13.97808,13.97808 0 0 0 -3.5023400000000002,4.76882 c-2.70725,5.08309 -5.37676,10.26247 -6.73934,15.86345 c-1.15606,4.75207 -1.3478400000000001,9.72124 -2.77927,14.3969 c-2.6553500000000003,8.67346 -9.45814,15.99427 -10.23562,25.03565 c-0.3479200000000001,4.0459 0.3293800000000001,8.78288 -2.62228,11.55472 a17.34929,17.34929 0 0 1 -2.32675,1.65026 a17.60478,17.60478 0 0 0 -5.09674,5.24089 c-1.10508,1.7556800000000001 -1.956,3.7725299999999997 -3.61936,5.00532 c-2.63322,1.9516 -7.00494,1.7530000000000001 -8.30307,4.77212 c-1.3339,3.10237 2.05109,6.55546 1.26693,9.84209 c-0.6387100000000001,2.677 -3.6228100000000003,3.90368 -5.678,5.72264 c-2.6329200000000004,2.33036 -3.83672,5.84608 -4.9345099999999995,9.19586 a30.534,30.534 0 0 1 -24.77846,-6.17913 c3.615,8.90286 3.69271,18.72812 3.84979,28.34315 c0.05100000000000001,3.11919 -0.04628000000000001,6.6197 -2.2731,8.7919 c10.30881,0.22075000000000003 20.3631,3.01355 30.42326,5.28716 c4.39679,0.99368 9.17,1.85656 13.26994,-0.024210000000000002 a21.651,21.651 0 0 0 6.07728,-4.83373 c5.47262,-5.54981 11.214,-11.60423 12.55294,-19.30282 c0.7502300000000001,-4.31354 0.023650000000000008,-8.740590000000001 0.22223000000000004,-13.115 c0.24600000000000002,-5.42009 1.90337,-10.6579 3.32221,-15.892710000000001 a187.52863,187.52863 0 0 0 5.81538,-32.72556 c0.5957800000000001,-6.82446 6.49023,-12.31707 9.59314,-18.41606 c5.8578,-11.51392 11.84409,-23.50568 12.28545,-36.4311 C743.2072901078797,388.8442 741.7807801078797,383.61884 737.5054701078797,383.14469 z" opacity="0.1" id="svg_40"/><path d="M725.3779501078797,590.643 c-11.0884,-5.27543 -19.20154,-15.11268 -28.16707,-23.53127 c-17.11553,-16.0714 -38.04606,-27.44864 -56.04168,-42.51671 c-11.92866,-9.98809 -22.5969,-21.61842 -35.70482,-29.97969 a88.87689,88.87689 0 0 0 -38.23972,-13.39909 a10.76961,10.76961 0 0 0 -4.6826300000000005,0.234 a11.08752,11.08752 0 0 0 -4.35289,3.4428900000000002 a136.166,136.166 0 0 0 -15.41292,21.19457 c-22.8098,38.72114 -55.209,71.27859 -82.05217,107.29028 a4.8146,4.8146 0 0 0 -0.32061000000000006,6.50086 l5.46037,10.69993 c3.05541,5.98724 7.95055,12.96156 14.53769,11.77173 c3.01007,-0.54371 5.40871,-2.75848 7.6252,-4.8772400000000005 l24.51283,-23.432 l25.70012,-24.567 c15.05816,-14.39423 30.373920000000002,-29.12291 40.19013,-47.53556 c7.672000000000001,13.3059 21.28307,22.01449 30.62211,34.19541 c3.55219,4.63313 6.4536999999999995,9.72812 9.6248,14.63286 c5.08334,7.86239 10.86371,15.24148 16.6351,22.608 l29.48017,37.62827 c4.02036,5.13156 8.15228,10.36572 13.65,13.84646 c6.98209,4.4205 15.47365,5.58519 23.692,6.32116 A313.60552,313.60552 0 0 0 735.4448801078796,672.375 c8.47576,-0.14452 17.21723,-0.7008400000000001 24.82276,-4.46516 s13.85345,-11.49156 13.45806,-20.006 c-0.20562,-4.42783 -2.13048,-8.580680000000001 -4.2491900000000005,-12.46783 C758.9456701078797,616.11536 745.1841201078796,600.066 725.3779501078797,590.643 z" fill="#2f2e41" id="svg_41"/><ellipse cx="753.4892578125" cy="400.0247497558594" rx="9.960539817810059" ry="10.015439987182617" fill="#2f2e41" id="svg_42"/><path d="M751.2872301078796,392.49936 c2.42767,4.28763 2.42943,9.62418 1.09337,14.37156 s-3.88729,9.04166 -6.41094,13.27288 c-2.48378,4.16439 -4.996,8.36668 -8.32793,11.88162 c15.3741,0.7358300000000001 30.27889,-5.29483 43.84673,-12.60207 c10.91522,-5.87861 21.80738,-13.13559 27.63287,-24.1222 c-3.40691,1.02351 -7.1615400000000005,0.013380000000000003 -10.177,-1.8811200000000001 a37.87028,37.87028 0 0 1 -7.798,-7.26291 l-7.71872,-8.683 a34.65,34.65 0 0 1 -4.74715,-6.2312 a17.51648,17.51648 0 0 1 -2.03777,-10.07227 a57.57635,57.57635 0 0 1 -10.2136,8.47552 c-5.513,3.588 -11.59017,6.19084 -17.11473,9.7577 c-1.95957,1.26516 -6.31541,3.29962 -5.19415,5.8599 C745.2136501078796,387.76057 749.7338101078797,389.75581 751.2872301078796,392.49936 z" fill="#fbbebe" id="svg_43"/><path d="M751.2872301078796,392.49936 c2.42767,4.28763 2.42943,9.62418 1.09337,14.37156 s-3.88729,9.04166 -6.41094,13.27288 c-2.48378,4.16439 -4.996,8.36668 -8.32793,11.88162 c15.3741,0.7358300000000001 30.27889,-5.29483 43.84673,-12.60207 c10.91522,-5.87861 21.80738,-13.13559 27.63287,-24.1222 c-3.40691,1.02351 -7.1615400000000005,0.013380000000000003 -10.177,-1.8811200000000001 a37.87028,37.87028 0 0 1 -7.798,-7.26291 l-7.71872,-8.683 a34.65,34.65 0 0 1 -4.74715,-6.2312 a17.51648,17.51648 0 0 1 -2.03777,-10.07227 a57.57635,57.57635 0 0 1 -10.2136,8.47552 c-5.513,3.588 -11.59017,6.19084 -17.11473,9.7577 c-1.95957,1.26516 -6.31541,3.29962 -5.19415,5.8599 C745.2136501078796,387.76057 749.7338101078797,389.75581 751.2872301078796,392.49936 z" opacity="0.1" id="svg_44"/><path d="M751.4971801078797,394.01549 c-2.88941,4.85892 -3.509,10.59587 0,15.02316 c0.43662000000000006,0.5508700000000001 2.05928,3.97043 2.75913,4.00209 a2.613,2.613 0 0 0 1.7547100000000002,-0.8876600000000001 c3.73358,-3.41331 6.46917,-7.76644 9.74942,-11.622 s7.41785,-7.3694500000000005 12.40447,-8.14608 c6.01873,-0.93737 11.83013,2.25192 17.09623,5.32859 c2.18872,1.27873 4.4584,2.6332400000000002 5.83659,4.7682400000000005 a15.61115,15.61115 0 0 1 1.91655,6.51454 c1.81913,13.706 1.779,27.58429 1.73577,41.4117 c-0.03126,9.99517 -0.06900000000000002,20.06077 -1.9594900000000002,29.87356 c-0.97712,5.0719 -2.4450700000000003,10.05008 -3.13909,15.16891 a101.82165,101.82165 0 0 0 -0.6186400000000002,13.61008 L799.0181801078796,528.09 a48.99984,48.99984 0 0 0 0.7380000000000001,10.43489 c0.9039,4.16991 2.8766800000000003,8.01931 4.19577,12.07578 a79.66891,79.66891 0 0 1 2.77992,14.27219 l2.6044400000000003,19.70516 c0.82021,6.20568 1.42625,12.99455 -2.32618,17.99 c-1.6965700000000001,2.25856 -3.92578,4.0665000000000004 -5.64609,6.30683 c-6.44174,8.389 -4.37466,20.35864 -7.06245,30.60683 a38.35837,38.35837 0 0 1 -12.49312,19.15117 c-4.60313,3.91093 -10.5488,6.98829 -16.475,5.888 c-8.00117,-1.48559 -12.807,-9.82816 -14.98816,-17.71 s-2.9765099999999998,-16.46138 -7.703,-23.12069 c-3.859,-5.43707 -9.83839,-8.8571 -15.24482,-12.73856 s-10.68925,-8.885 -11.86623,-15.45908 c-0.51406,-2.87133 -0.19411000000000003,-5.82857 -0.49900000000000005,-8.72991 a20.6556,20.6556 0 0 0 -12.74678,-16.73815 c-4.09563,-1.59288 -9.154,-2.16179 -11.46009,-5.91944 c5.9551,-3.35573 9.9081,-9.55764 11.99062,-16.09456 s2.5071,-13.473 2.9165099999999997,-20.32472 l1.36822,-22.89793 c0.61146,-10.23309 0.8886300000000001,-20.375 5.39525,-29.57067 c2.01462,-4.11077 4.5214,-7.959 6.61841,-12.02793 a135.29557,135.29557 0 0 0 7.08923,-17.64781 c3.26693,-9.38242 6.53474,-18.76754 9.44685,-28.26735 c1.38762,-4.52669 2.721,-9.13988 5.19432,-13.17136 S746.8665301078796,394.88593 751.4971801078797,394.01549 z" fill="#028afd" id="svg_45" class="" fill-opacity="1"/><path d="M700.6496301078796,542.77686 l6.05675,0.21853000000000003 l1.29053,-9.15692 a19.195,19.195 0 0 1 1.283,-5.33865 a32.975,32.975 0 0 1 3.48314,-5.10429 c5.96393,-8.42482 5.52929,-19.6113 7.00656,-29.8452 c1.9702899999999999,-13.64947 7.672000000000001,-26.42819 13.31244,-39.00066 l11.76148,-26.21637 a28.41432,28.41432 0 0 0 3.25239,-14.47058 c0.10414000000000001,-4.05285 1.3050000000000002,-18.799 1.40913,-22.85187 c0.038540000000000005,-1.49973 -3.30669,-0.6664500000000001 -3.98421,-2.00309 c-1.47536,-2.91059 -3.49314,4.98281 -6.248,6.71461 s-4.27524,4.86882 -5.44493,7.91661 c-2.53455,6.60409 -4.08439,13.54928 -6.446,20.21786 s-5.666,13.22017 -10.98,17.86324 c-2.4147,2.10984 -5.197,3.7831799999999998 -7.47776,6.03864 c-7.31754,7.2362400000000004 -8.03025,18.66344 -8.28766,28.98014 C700.4834801078796,482.87199999999996 699.2983001078796,542.77686 700.6496301078796,542.77686 z" fill="#2f2e41" id="svg_46"/><path d="M787.8782501078797,383.08273 c-5.885,2.3138900000000002 -9.112,8.6961 -10.76594,14.82835 s-2.32755,12.668 -5.48857,18.16967 c-7.38917,12.86053 -26.22925,16.60836 -31.44242,30.50508 c-1.7058400000000002,4.54724 -1.63213,9.53626 -2.09153,14.37424 c-0.94556,9.95766 -4.21958,19.57779 -5.1874,29.53329 c-0.7497600000000001,7.71247 -0.10246000000000001,15.48535 0.54495,23.20719 l6.58456,78.53528 c0.95111,11.344 0.9267000000000001,23.52995 -1.97236,34.53464 c6.6667000000000005,1.3004200000000001 13.59819,-0.44007000000000007 19.78307,-3.26 s11.83,-6.69112 17.78377,-9.97566 c10.23684,-5.64739 21.52595,-9.64884 30.49054,-17.17161 a17.72076,17.72076 0 0 0 4.10816,-4.54083 c1.79608,-3.10513 1.94347,-6.86139 2.79808,-10.34923 a56.74382,56.74382 0 0 1 2.9514,-8.13391 a242.34829,242.34829 0 0 0 8.56545,-24.21413 a133.82254,133.82254 0 0 0 3.93914,-16.62752 c0.71855,-4.47647 1.10667,-8.999 1.4941900000000001,-13.51664 a80.87085,80.87085 0 0 1 4.18007,-20.759 a166.31523,166.31523 0 0 0 9.61637,-49.74549 a25.14026,25.14026 0 0 0 -0.49479,-7.32317 c-0.78029,-2.9811 -2.53978,-5.587 -3.98337,-8.3065 c-2.73612,-5.15443 -4.37931,-10.827 -6.96181,-16.061 c-5.83573,-11.82728 -16.14107,-20.7945 -26.9366,-28.31015 C800.0914901078796,384.78475 793.8838801078797,380.72142 787.8782501078797,383.08273 z" fill="#2f2e41" id="svg_47"/><path d="M650.2137501078796,511.20235 c-4.55667,-2.65355 -9.112,-5.51109 -12.54157,-9.52884 c-1.64311,-1.9249100000000001 -2.99934,-4.08527 -4.66979,-5.9862400000000004 c-4.06338,-4.62413 -9.82137,-7.49152 -15.77434,-8.990359999999999 s-12.14366,-1.7264300000000001 -18.28021,-1.778 c-4.10517,-0.03451000000000001 -8.31149,0.024120000000000003 -12.15479,1.4752100000000001 s-7.30921,4.5799 -8.0521,8.6397 c-0.8938400000000002,4.88474 2.29762,9.64469 6.13,12.77826 a29.529,29.529 0 0 0 12.252,5.94744 a98.27892,98.27892 0 0 0 11.07525,1.29762 c21.80408,2.28316 41.25538,14.15049 60.36238,24.95666 q25.17113,14.23579 51.321,26.61874 a102.3689,102.3689 0 0 0 0.8601800000000001,-15.75319 c-0.08900000000000002,-3.93229 -0.28263,-9.92667 -3.99709,-12.23538 c-4.32782,-2.68994 -11.45269,-3.308 -16.33482,-4.9082 a262.17112,262.17112 0 0 1 -32.84177,-13.28511 Q658.7225801078796,516.15572 650.2137501078796,511.20235 z" fill="#fbbebe" id="svg_48"/><ellipse cx="745.5208740234375" cy="348.94598388671875" rx="38.84611129760742" ry="39.06023025512695" fill="#fbbebe" id="svg_49"/><path d="M798.9838801078796,427.36775 c-3.46962,4.04574 -5.2065,9.25642 -7.53775,14.05689 c-4.797,9.87781 -12.31988,18.35587 -16.08748,28.675 c-3.97472,10.8864 -3.84152,23.83545 -11.63275,32.386 c-1.35471,1.48674 -2.98985,2.9216100000000003 -3.38163,4.89917 c-0.23254000000000002,1.17377 0.008830000000000003,2.43017 -0.3957800000000001,3.55573 c-1.1166800000000001,3.10637 -6.20132,3.263 -7.15062,6.42519 c-0.27778,0.9252900000000001 -0.12133000000000001,1.95023 -0.46531000000000006,2.8527500000000003 c-0.7794599999999999,2.04517 -3.48035,2.35754 -5.28605,3.58245 c-3.77045,2.55771 -3.01015,8.50485 -5.7010000000000005,12.19192 c-2.12889,2.91706 -6.14223,3.89454 -9.70683,3.3998500000000003 s-6.82942,-2.201 -10.0757,-3.762 a9.16875,9.16875 0 0 0 -3.62378,-1.1379000000000001 a7.60571,7.60571 0 0 0 -4.18373,1.42865 c-7.17586,4.56236 -10.544270000000001,13.59941 -10.49451,22.13608 s2.98293,16.76169 5.987,24.74623 a10.65187,10.65187 0 0 0 1.9796,3.68643 c2.37916,2.51579 6.52251,2.10933 9.68213,0.7098300000000001 s6.02967,-3.60147 9.42756,-4.21694 c6.011,-1.08879 11.8856,3.04165 17.984,2.70166 c4.46771,-0.24908000000000002 8.42141,-2.84689 12.1332,-5.3595500000000005 c5.9249,-4.01079 11.95852,-8.12261 16.31456,-13.81419 c2.6674100000000003,-3.48523 4.62132,-7.45817 6.94693,-11.18273 a129.18647,129.18647 0 0 1 9.81049,-13.10239 l22.39937,-27.41823 A44.3185,44.3185 0 0 0 826.6545201078796,493.96299999999997 c2.1295,-7.30734 4.2735,-14.69838 4.64212,-22.30395 c0.30341000000000007,-6.26028 -0.60533,-12.51147 -1.6266700000000003,-18.69446 c-1.00536,-6.08627 -2.14981,-12.24035 -4.82348,-17.79346 C819.9801801078796,425.06399999999996 808.1322101078796,416.70035 798.9838801078796,427.36775 z" fill="#2f2e41" id="svg_50" class=""/><circle cx="812.0239868164062" cy="264.2263488769531" r="49.02334976196289" fill="#2f2e41" id="svg_51"/><path d="M854.3092201078796,304.82082 a49.026,49.026 0 0 1 -75.705,-25.74134 a49.02605,49.02605 0 1 0 95.63134,-20.10411 A49.008,49.008 0 0 1 854.3092201078796,304.82082 z" fill="#2f2e41" id="svg_52"/><circle cx="771.9882202148438" cy="336.94427490234375" r="35.95045852661133" fill="#2f2e41" id="svg_53"/><ellipse cx="741.7571411132812" cy="323.46282958984375" rx="31.865169525146484" ry="24.92020034790039" fill="#2f2e41" id="svg_54"/><ellipse cx="632.3774566650391" cy="940.4903259277344" rx="5" ry="7.5" transform="rotate(-39.117549896240234 -122.62254333496105,486.9903259277344) " fill="#fbbebe" id="svg_55"/><path d="M714.2767501078796,680.57325 c0,17.41683 -10.35262,23.49772 -23.12525,23.49772 c-0.29585000000000006,0 -0.5916900000000002,-0.00427 -0.88541,-0.010660000000000001 c-0.5917100000000001,-0.012770000000000004 -1.17915,-0.040420000000000005 -1.75808,-0.08086000000000002 c-11.52749,-0.8151900000000001 -20.48174,-7.209 -20.48174,-23.4062 c0,-16.75915 21.41612,-37.90922 23.02945,-39.47786 l0.0021300000000000004,-0.0021300000000000004 c0.061730000000000014,-0.06172000000000001 0.09365000000000002,-0.09152000000000003 0.09365000000000002,-0.09152000000000003 S714.2767501078796,663.15855 714.2767501078796,680.57325 z" fill="#028afd" id="svg_56" class="" fill-opacity="1"/><path d="M690.3086601078796,701.40618 l8.45832,-11.817 l-8.47961,13.1153 l-0.021280000000000004,1.3558000000000001 c-0.5917100000000001,-0.012770000000000004 -1.17915,-0.040420000000000005 -1.75808,-0.08086000000000002 l0.911,-17.42323 l-0.006380000000000002,-0.13621000000000003 l0.014900000000000002,-0.023420000000000007 l0.08726000000000003,-1.6473900000000001 L681.0138801078797,671.602 l8.52642,11.91275 l0.021290000000000003,0.3490600000000001 l0.6874800000000001,-13.16426 l-7.27706,-13.58567 l7.36645,11.27635 l0.7172700000000001,-27.294810000000002 l0.0021300000000000004,-0.09365000000000002 v0.09152000000000003 l-0.11919000000000003,21.52254 l7.24514,-8.532820000000001 L690.9088801078797,664.46966 l-0.19155000000000003,11.78717 l6.76623,-11.31254 l-6.7939,13.04719 l-0.10642000000000001,6.5534 l9.81838,-15.746 L690.5448801078796,686.8308 z" fill="#3f3d56" id="svg_57"/></g></svg>